<svg width="640" height="640" viewBox="0 0 640 640" fill="none" xmlns="http://www.w3.org/2000/svg">
  <defs>
    <filter id="shadow" x="-50%" y="-50%" width="200%" height="200%">
      <feOffset dy="10" in="SourceAlpha"/>
      <feGaussianBlur stdDeviation="18"/>
      <feColorMatrix type="matrix" values="0 0 0 0 0  0 0 0 0 0  0 0 0 0 0  0 0 0 .25 0"/>
      <feBlend in2="SourceGraphic" mode="normal"/>
    </filter>
    <linearGradient id="card" x1="0" y1="0" x2="1" y2="1">
      <stop offset="0" stop-color="#F8FAFC"/>
      <stop offset="1" stop-color="#EEF2F7"/>
    </linearGradient>
  </defs>

  <!-- Phone body -->
  <g filter="url(#shadow)">
    <rect x="170" y="70" width="300" height="500" rx="36" fill="white"/>
  </g>

  <!-- Screen -->
  <rect x="188" y="120" width="264" height="400" rx="22" fill="url(#card)" stroke="#E5E7EB"/>

  <!-- Speaker -->
  <rect x="300" y="90" width="40" height="6" rx="3" fill="#E5E7EB"/>

  <!-- UI hints -->
  <rect x="210" y="150" width="220" height="18" rx="9" fill="#CBD5E1"/>
  <rect x="210" y="180" width="160" height="12" rx="6" fill="#E2E8F0"/>

  <rect x="210" y="220" width="220" height="80" rx="14" fill="white" stroke="#E5E7EB"/>
  <circle cx="232" cy="260" r="10" fill="#10B981"/>
  <rect x="248" y="244" width="160" height="14" rx="7" fill="#CBD5E1"/>
  <rect x="248" y="266" width="120" height="10" rx="5" fill="#E2E8F0"/>

  <rect x="210" y="320" width="220" height="80" rx="14" fill="white" stroke="#E5E7EB"/>
  <circle cx="232" cy="360" r="10" fill="#06B6D4"/>
  <rect x="248" y="344" width="160" height="14" rx="7" fill="#CBD5E1"/>
  <rect x="248" y="366" width="120" height="10" rx="5" fill="#E2E8F0"/>

  <rect x="210" y="420" width="220" height="80" rx="14" fill="white" stroke="#E5E7EB"/>
  <circle cx="232" cy="460" r="10" fill="#14B8A6"/>
  <rect x="248" y="444" width="160" height="14" rx="7" fill="#CBD5E1"/>
  <rect x="248" y="466" width="120" height="10" rx="5" fill="#E2E8F0"/>

  <!-- Home indicator -->
  <rect x="286" y="540" width="68" height="6" rx="3" fill="#E5E7EB"/>
</svg>

