<svg width="256" height="256" viewBox="0 0 256 256" fill="none" xmlns="http://www.w3.org/2000/svg">
  <defs>
    <linearGradient id="brand-outer" x1="44" y1="32" x2="220" y2="216" gradientUnits="userSpaceOnUse">
      <stop offset="0" stop-color="#FF3600" />
      <stop offset="0.6" stop-color="#FF5C12" />
      <stop offset="1" stop-color="#FF8936" />
    </linearGradient>
    <linearGradient id="brand-inner" x1="112" y1="104" x2="200" y2="200" gradientUnits="userSpaceOnUse">
      <stop offset="0" stop-color="#1A0600" />
      <stop offset="1" stop-color="#2E0A03" />
    </linearGradient>
    <radialGradient id="brand-glow" cx="0" cy="0" r="1" gradientUnits="userSpaceOnUse" gradientTransform="translate(128 168) scale(120 80)">
      <stop offset="0" stop-color="#FF6A2A" stop-opacity="0.35" />
      <stop offset="1" stop-color="#FF6A2A" stop-opacity="0" />
    </radialGradient>
  </defs>
  <rect width="256" height="256" rx="56" fill="#050607" />
  <g filter="url(#brand-shadow)">
    <path d="M128 32 28 224h60l19-37.2c6.4-12.4 19-20.2 32.7-20.2h16.6c13.7 0 26.3 7.8 32.7 20.2L207 224h60L128 32Z" fill="url(#brand-outer)" />
    <path d="M127.4 92.5 94 156h29l14-26.6c3.6-6.7 10.4-11 17.9-11h2.8c7.5 0 14.3 4.3 17.9 11l14 26.6h29L160.6 92.5c-6.8-12.7-26.5-12.7-33.2 0Z" fill="url(#brand-inner)" />
    <path d="M154 170.8c-3.1-5.8-9.2-9.3-15.7-9.3h-8.6c-6.5 0-12.6 3.5-15.7 9.3L103 192h62l-11-21.2Z" fill="#FF6121" fill-opacity="0.42" />
    <path d="M94 186c20.8-18.7 49.5-29 77.6-27.1" stroke="#FF9A55" stroke-width="6" stroke-linecap="round" stroke-opacity="0.42" />
  </g>
  <rect width="256" height="256" rx="56" fill="url(#brand-glow)" />
  <defs>
    <filter id="brand-shadow" x="8" y="20" width="240" height="228" filterUnits="userSpaceOnUse" color-interpolation-filters="sRGB">
      <feFlood flood-opacity="0" result="BackgroundImageFix" />
      <feBlend in="SourceGraphic" in2="BackgroundImageFix" result="shape" />
      <feGaussianBlur stdDeviation="7" result="effect1_foregroundBlur" />
    </filter>
  </defs>
</svg>
