<svg width="256" height="256" viewBox="0 0 256 256" fill="none" xmlns="http://www.w3.org/2000/svg">
  <defs>
    <linearGradient id="outer" x1="38" y1="24" x2="218" y2="232" gradientUnits="userSpaceOnUse">
      <stop offset="0" stop-color="#FF3200" />
      <stop offset="0.58" stop-color="#FF5A10" />
      <stop offset="1" stop-color="#FF8A3D" />
    </linearGradient>
    <linearGradient id="inner" x1="96" y1="88" x2="196" y2="196" gradientUnits="userSpaceOnUse">
      <stop offset="0" stop-color="#180400" />
      <stop offset="1" stop-color="#2A0903" />
    </linearGradient>
    <radialGradient id="glow" cx="0" cy="0" r="1" gradientUnits="userSpaceOnUse" gradientTransform="translate(128 168) scale(120 80)">
      <stop offset="0" stop-color="#FF6A2A" stop-opacity="0.45" />
      <stop offset="1" stop-color="#FF6A2A" stop-opacity="0" />
    </radialGradient>
  </defs>
  <rect width="256" height="256" rx="56" fill="#070809" />
  <g filter="url(#shadow)">
    <path d="M128 32 30 224h56l18-35c6-11 17.7-18 30.6-18h14.8c12.9 0 24.7 7 30.6 18l18 35h56L128 32Z" fill="url(#outer)" />
    <path d="M127.6 90.3 96 152h26.4l13-24.6c3.3-6.3 9.7-10.4 16.7-10.4H156c7 0 13.4 4 16.7 10.4L186 152h26.4L157.9 90.3c-6.3-12.3-23.9-12.3-30.3 0Z" fill="url(#inner)" />
    <path d="M152 168c-3-5.6-8.9-9-15.1-9h-7.8c-6.2 0-12.1 3.4-15.1 9l-9.4 17.7h56.8L152 168Z" fill="#FF6121" fill-opacity="0.4" />
    <path d="M96 182c18.9-17 44.7-26.4 70-24.7" stroke="#FF9550" stroke-width="6" stroke-linecap="round" stroke-opacity="0.45" />
  </g>
  <rect width="256" height="256" rx="56" fill="url(#glow)" />
  <defs>
    <filter id="shadow" x="10" y="22" width="236" height="222" filterUnits="userSpaceOnUse" color-interpolation-filters="sRGB">
      <feFlood flood-opacity="0" result="BackgroundImageFix" />
      <feBlend in="SourceGraphic" in2="BackgroundImageFix" result="shape" />
      <feGaussianBlur stdDeviation="6" result="effect1_foregroundBlur" />
    </filter>
  </defs>
</svg>
